<svg width="57" height="22" viewBox="0 0 57 22" fill="none" xmlns="http://www.w3.org/2000/svg">
<path d="M24.6294 17C27.1777 17 28.6885 15.7466 28.6885 13.6382C28.6885 12.0527 27.6509 10.9321 26.0156 10.7246V10.5918C27.1694 10.3843 28.0825 9.25537 28.0825 8.01025C28.0825 6.17578 26.7378 5.02197 24.5381 5.02197H19.9561V17H24.6294ZM21.4502 6.3418H24.2227C25.7085 6.3418 26.5718 7.04736 26.5718 8.26758C26.5718 9.5376 25.6504 10.1851 23.8408 10.1851H21.4502V6.3418ZM21.4502 15.6802V11.4717H24.2642C26.1733 11.4717 27.1528 12.1772 27.1528 13.5635C27.1528 14.9497 26.2065 15.6802 24.4053 15.6802H21.4502ZM33.2921 15.9043C32.2546 15.9043 31.4826 15.373 31.4826 14.46C31.4826 13.5635 32.0802 13.0903 33.4416 12.999L35.8488 12.8413V13.6631C35.8488 14.9414 34.7614 15.9043 33.2921 15.9043ZM33.0265 17.1577C34.2218 17.1577 35.2013 16.6348 35.7824 15.6802H35.9152V17H37.2765V10.874C37.2765 9.01465 36.0563 7.89404 33.8732 7.89404C31.964 7.89404 30.5529 8.84033 30.362 10.2764H31.8063C32.0055 9.5708 32.7526 9.16406 33.8234 9.16406C35.1598 9.16406 35.8488 9.77002 35.8488 10.874V11.6875L33.2672 11.8452C31.1838 11.9697 30.005 12.8911 30.005 14.4932C30.005 16.1284 31.2917 17.1577 33.0265 17.1577ZM46.9105 10.791C46.6614 9.19727 45.3333 7.89404 43.1585 7.89404C40.6517 7.89404 39.0579 9.70361 39.0579 12.4927C39.0579 15.3398 40.66 17.1577 43.1668 17.1577C45.3167 17.1577 46.6531 15.9458 46.9105 14.3022H45.4661C45.2005 15.3149 44.3621 15.8711 43.1585 15.8711C41.5648 15.8711 40.5355 14.5596 40.5355 12.4927C40.5355 10.4673 41.5482 9.18066 43.1585 9.18066C44.4451 9.18066 45.2337 9.90283 45.4661 10.791H46.9105ZM50.2524 11.9614H50.1196V4.49902H48.6919V17H50.1196V13.605L50.9746 12.8081L54.3281 17H56.146L52.0371 11.8867L55.8887 8.05176H54.1372L50.2524 11.9614Z" fill="#241623"/>
<mask id="mask0" mask-type="alpha" maskUnits="userSpaceOnUse" x="0" y="0" width="13" height="22">
<path fill-rule="evenodd" clip-rule="evenodd" d="M9.75946 0.985511L0.395654 9.97547C-0.131885 10.4812 -0.131885 11.3255 0.395654 11.8333L9.75946 20.8212C10.3337 21.3726 11.2403 21.3726 11.8146 20.8212C12.4221 20.2375 12.4221 19.2656 11.8146 18.6809L3.97212 11.1521C3.82985 11.016 3.82985 10.7907 3.97212 10.6546L11.8146 3.12578C12.4221 2.54217 12.4221 1.57017 11.8146 0.985511C11.5269 0.711358 11.1572 0.573242 10.7875 0.573242C10.4168 0.573242 10.0471 0.711358 9.75946 0.985511Z" fill="white"/>
</mask>
<g mask="url(#mask0)">
<path fill-rule="evenodd" clip-rule="evenodd" d="M9.75946 0.985511L0.395654 9.97547C-0.131885 10.4812 -0.131885 11.3255 0.395654 11.8333L9.75946 20.8212C10.3337 21.3726 11.2403 21.3726 11.8146 20.8212C12.4221 20.2375 12.4221 19.2656 11.8146 18.6809L3.97212 11.1521C3.82985 11.016 3.82985 10.7907 3.97212 10.6546L11.8146 3.12578C12.4221 2.54217 12.4221 1.57017 11.8146 0.985511C11.5269 0.711358 11.1572 0.573242 10.7875 0.573242C10.4168 0.573242 10.0471 0.711358 9.75946 0.985511Z" fill="#241623"/>
</g>
</svg>
