<svg width="51" height="51" viewBox="0 0 84 83" fill="none" xmlns="http://www.w3.org/2000/svg">
<g filter="url(#filter0_d)">
<ellipse cx="41.5804" cy="40.5" rx="39.5804" ry="39.5" fill="#00F2F2"/>
<mask id="mask0" mask-type="alpha" maskUnits="userSpaceOnUse" x="15" y="13" width="54" height="54">
<circle cx="42" cy="40" r="27" fill="#C4C4C4"/>
</mask>
<g mask="url(#mask0)">
<path d="M50.8344 29.1359C47.8666 28.2367 45.1956 27.038 42.8213 26.1388C37.4792 23.7411 35.1049 24.9401 30.3564 29.7353C28.279 31.8332 26.795 34.8304 27.0917 36.0292C27.0917 36.3288 27.0917 36.3288 27.6853 36.6286C29.1693 37.2281 31.2467 37.5277 33.3242 34.2309C33.6209 33.9313 33.9178 33.6315 34.5113 33.6315C35.4016 33.6315 35.6983 33.3318 36.5887 33.032C37.1823 32.7323 37.7758 32.4325 38.6661 32.1329C38.9629 32.1329 38.9629 32.1329 39.2597 32.1329C39.5565 32.1329 40.1501 32.4325 40.4468 32.4325C41.9309 33.9313 44.602 36.0292 47.273 38.4269C51.428 41.7237 55.5829 45.3202 57.6605 48.0175H57.9572C55.8798 42.0233 52.3184 31.8332 50.8344 29.1359Z" fill="white"/>
<path d="M55.5829 51.0146C54.3958 48.3172 49.3504 44.4211 44.8987 40.8246C42.5245 38.7266 40.1502 36.9283 38.3695 35.4297C38.0728 35.7294 37.4792 35.7294 37.4792 36.0292C36.5888 36.3289 36.2921 36.6287 35.1049 36.6287C32.7307 39.6257 29.7628 40.8245 26.4983 39.6257C25.0143 39.326 24.1239 38.1271 23.8272 36.9283C23.2336 33.9313 25.9046 29.7354 27.9822 27.6375H22.0465C20.8594 33.6316 18.7818 41.4239 17.298 45.6199C18.4851 46.8186 19.6723 48.3172 20.5627 48.9167C26.2015 53.7119 32.7308 58.5073 33.9179 59.4065C34.8083 60.0059 36.589 60.6052 37.4793 60.6052C37.7761 60.6052 38.0729 60.6052 38.3697 60.6052L33.621 55.8098C33.0274 55.2104 33.0274 54.3113 33.621 53.7119C34.2147 53.1126 35.105 53.1125 35.6985 53.7119L41.6342 59.7061C42.2278 60.3056 42.8213 60.0058 43.4149 60.0058C44.3052 59.7061 44.602 59.1067 44.8988 58.2075L38.0728 51.3142C37.4792 50.7148 37.4792 49.8157 38.0728 49.2163C38.6664 48.617 39.5568 48.6169 40.1502 49.2163L47.5697 56.709C47.8665 57.0086 49.0537 57.0086 49.9441 56.709C50.2408 56.4093 50.8344 56.1095 51.1311 55.5102L42.8213 47.1183C42.2277 46.5188 42.2277 45.6197 42.8213 45.0204C43.4149 44.4211 44.3052 44.4209 44.8987 45.0204L53.5055 53.7119C54.0991 54.0116 54.6925 53.7119 55.2862 53.4123C55.5829 53.1125 56.1765 52.2134 55.5829 51.0146Z" fill="white"/>
<path d="M16.2033 45.0473C18.2384 41.6529 19.8264 31.6896 20.366 27.1322L11.1156 25.0107L7.18421 41.2757L16.2033 45.0473Z" fill="white"/>
<path d="M59.4044 47.2761L52.3065 28.3077L71.5722 20.1052C76.8449 27.8976 77.1491 39.4153 76.6421 44.2001L59.4044 47.2761Z" fill="white"/>
</g>
</g>
<defs>
<filter id="filter0_d" x="0" y="0" width="83.1608" height="83" filterUnits="userSpaceOnUse" color-interpolation-filters="sRGB">
<feFlood flood-opacity="0" result="BackgroundImageFix"/>
<feColorMatrix in="SourceAlpha" type="matrix" values="0 0 0 0 0 0 0 0 0 0 0 0 0 0 0 0 0 0 127 0"/>
<feOffset dy="1"/>
<feGaussianBlur stdDeviation="1"/>
<feColorMatrix type="matrix" values="0 0 0 0 0 0 0 0 0 0 0 0 0 0 0 0 0 0 0.25 0"/>
<feBlend mode="normal" in2="BackgroundImageFix" result="effect1_dropShadow"/>
<feBlend mode="normal" in="SourceGraphic" in2="effect1_dropShadow" result="shape"/>
</filter>
</defs>
</svg>
