<svg width="43" height="43" viewBox="0 0 43 43" fill="none" xmlns="http://www.w3.org/2000/svg">
<path d="M42.3123 21.0804C42.3123 32.4395 32.9596 41.6608 21.4062 41.6608C9.85275 41.6608 0.5 32.4395 0.5 21.0804C0.5 9.72137 9.85275 0.5 21.4062 0.5C32.9596 0.5 42.3123 9.72137 42.3123 21.0804Z" stroke="#BFC3BA"/>
<path d="M26.7641 24.2682C26.6966 24.2682 26.6292 24.2437 26.5766 24.1941L23.4224 21.2561C23.3122 21.1537 23.3067 20.9812 23.4103 20.8718C23.5139 20.7613 23.6866 20.7564 23.7979 20.8598L26.9521 23.7979C27.0623 23.9002 27.0678 24.0728 26.9642 24.1822C26.9099 24.2393 26.8375 24.2682 26.7641 24.2682Z" fill="#C4C4C4"/>
<path d="M16.2353 24.2698C16.1624 24.2698 16.0895 24.241 16.0352 24.1838C15.9316 24.0744 15.9371 23.9019 16.0473 23.7995L19.2026 20.8615C19.3133 20.7591 19.4871 20.7635 19.5901 20.8734C19.6937 20.9828 19.6883 21.1554 19.5781 21.2577L16.4228 24.1958C16.3701 24.2453 16.3027 24.2698 16.2353 24.2698Z" fill="#C4C4C4"/>
<path d="M28.6296 27H14.3704C13.6151 27 13 26.3898 13 25.6393V16.3607C13 15.6102 13.6151 15 14.3704 15H28.6296C29.3849 15 30 15.6102 30 16.3607V25.6393C30 26.3898 29.3849 27 28.6296 27ZM14.3704 15.5443C13.9171 15.5443 13.5482 15.9106 13.5482 16.3607V25.6393C13.5482 26.0894 13.9171 26.4557 14.3704 26.4557H28.6296C29.0829 26.4557 29.4518 26.0894 29.4518 25.6393V16.3607C29.4518 15.9106 29.0829 15.5443 28.6296 15.5443H14.3704Z" fill="#C4C4C4"/>
<path d="M21.5 22.3676C21.1355 22.3676 20.771 22.2473 20.4936 22.0073L13.455 15.9107C13.341 15.8122 13.3289 15.6402 13.4282 15.5264C13.5285 15.4132 13.7012 15.4029 13.8152 15.5003L20.8537 21.5964C21.204 21.8995 21.7961 21.8995 22.1458 21.5964L29.1756 15.5101C29.2891 15.4116 29.4617 15.4225 29.5626 15.5362C29.6618 15.65 29.6503 15.8214 29.5363 15.9205L22.5065 22.0068C22.2286 22.2473 21.8646 22.3676 21.5 22.3676Z" fill="#C4C4C4"/>
</svg>
