<svg width="43" height="43" viewBox="0 0 43 43" fill="none" xmlns="http://www.w3.org/2000/svg">
<path d="M42.3123 21.0804C42.3123 32.4395 32.9596 41.6608 21.4062 41.6608C9.85275 41.6608 0.5 32.4395 0.5 21.0804C0.5 9.72137 9.85275 0.5 21.4062 0.5C32.9596 0.5 42.3123 9.72137 42.3123 21.0804Z" stroke="#BFC3BA"/>
<path d="M24.4656 21.7338L24.4144 21.7107C24.2924 21.6551 24.1694 21.6027 24.044 21.5537C23.9073 21.4989 23.7685 21.4482 23.6278 21.4007C23.5166 21.3642 23.4046 21.3301 23.2914 21.2969C23.119 21.247 22.9449 21.2019 22.7656 21.1622C22.7048 21.1496 22.6427 21.1374 22.5811 21.1264L22.5389 21.1183C22.433 21.0976 22.3267 21.0793 22.2192 21.0635L22.1884 21.0586C22.1872 21.0586 22.1864 21.0578 22.1852 21.0578L22.1544 21.0538C22.0651 21.0404 21.9763 21.0278 21.8838 21.0173L21.5689 20.9913C21.1819 20.9658 20.7831 20.9666 20.4005 20.9946L20.289 21.0039L20.237 21.0079L20.1068 21.0197C19.9871 21.0322 19.8683 21.0489 19.7494 21.068L19.7145 21.0728C19.6334 21.0862 19.5522 21.1012 19.4723 21.1163C19.3834 21.1321 19.2958 21.1495 19.2081 21.1686C19.0386 21.2067 18.8702 21.2502 18.7071 21.2976C18.5773 21.3349 18.4491 21.3759 18.3286 21.4173L18.245 21.4474C17.9894 21.5378 17.7355 21.6417 17.4896 21.7557L17.4239 21.7869L17.4227 21.7886C14.5474 23.1647 12.6934 26.0968 12.6934 29.2783C12.6934 29.3513 12.6982 29.4231 12.7027 29.4953L12.7242 30H29.2752L29.2975 29.501C29.3023 29.4271 29.3068 29.3537 29.3068 29.2783C29.3068 26.046 27.4077 23.088 24.4656 21.7338ZM13.505 29.1886C13.5399 26.332 15.2289 23.7116 17.8031 22.5046L17.8858 22.4722L17.8956 22.4628C18.0972 22.3707 18.3053 22.2868 18.5163 22.2125L18.5832 22.1886C18.698 22.1488 18.8124 22.1123 18.9313 22.0786C19.0794 22.0352 19.2303 21.9962 19.3816 21.9622C19.4599 21.9456 19.5382 21.9298 19.619 21.9148C19.683 21.903 19.7467 21.8908 19.8113 21.8807L19.8429 21.875C19.9589 21.8567 20.0754 21.8401 20.1914 21.8275L20.4567 21.8044C20.804 21.7788 21.1363 21.7752 21.5387 21.8044L21.7967 21.8259C21.8604 21.8333 21.9241 21.8418 22.0016 21.8527L22.0945 21.8661C22.1915 21.8803 22.2885 21.8969 22.3858 21.9152L22.4313 21.9237C22.4861 21.9339 22.5404 21.9444 22.5919 21.9553C22.7518 21.9902 22.9087 22.0316 23.0645 22.0767C23.1676 22.1067 23.2698 22.1375 23.3696 22.1708C23.4962 22.213 23.6212 22.2589 23.7449 22.3079C23.8638 22.3546 23.981 22.4045 24.097 22.4576L24.1173 22.467C26.7499 23.6748 28.4595 26.3037 28.4944 29.1879H13.505V29.1886ZM18.9946 19.9487C19.0555 19.9742 19.1184 19.9965 19.1813 20.0189L19.3131 20.0667C19.3638 20.0862 19.4149 20.1053 19.4669 20.1215C19.9505 20.2737 20.4564 20.3519 20.9708 20.356L21.0118 20.3569C21.1883 20.3569 21.3652 20.3475 21.5347 20.3301C21.5931 20.3244 21.6499 20.3151 21.7071 20.3053L21.8341 20.2863C21.9055 20.2769 21.9769 20.2664 22.0516 20.2518C22.1027 20.2413 22.1522 20.2279 22.2017 20.2145L22.3405 20.1792C22.409 20.1626 22.4776 20.1459 22.5454 20.1249C22.5876 20.1115 22.629 20.0961 22.6699 20.0806L22.7815 20.0405C22.861 20.0129 22.9413 19.9845 23.0217 19.9508C23.0529 19.9374 23.0834 19.9229 23.1133 19.9082L23.1494 19.8903C23.2594 19.8412 23.3689 19.7909 23.4776 19.7325L23.5482 19.6904C23.6699 19.6214 23.7913 19.55 23.9142 19.466C23.9779 19.423 24.0387 19.3747 24.0987 19.3269L24.3065 19.1654C25.5009 18.1767 26.1873 16.7259 26.1873 15.2211L26.1898 15.1781C26.1898 12.3228 23.8668 10.0001 21.0114 10.0001C18.2859 10.0001 16.0184 12.1313 15.8492 14.852L15.8448 14.9193C15.8383 15.0049 15.833 15.0905 15.833 15.1781C15.8322 17.2637 17.0733 19.136 18.9946 19.9487ZM16.6537 14.9756L16.6586 14.9025C16.8014 12.6083 18.713 10.8114 21.011 10.8114C23.4193 10.8114 25.3779 12.7702 25.38 15.1411L25.3776 15.1837C25.3759 16.4828 24.7966 17.706 23.7844 18.5462L23.5916 18.6931C23.5487 18.728 23.5052 18.7628 23.4513 18.8002C23.3539 18.8664 23.2508 18.926 23.1462 18.9852L23.0882 19.0205C23.0005 19.0676 22.9084 19.1093 22.8127 19.152L22.7052 19.2039C22.6435 19.2295 22.5786 19.2518 22.5145 19.2741L22.3806 19.3224C22.3546 19.3321 22.3282 19.3427 22.3027 19.3504C22.2528 19.3658 22.2017 19.3776 22.1509 19.3901L21.9891 19.4315C21.9541 19.4409 21.9197 19.4506 21.8889 19.4571C21.8349 19.4677 21.7797 19.475 21.725 19.4827L21.5708 19.5058C21.5335 19.5123 21.4962 19.5188 21.4544 19.5228C21.3193 19.537 21.1834 19.5447 21.0454 19.5459L21.0073 19.5455H21.0065C20.5623 19.5452 20.1261 19.479 19.7091 19.3484C19.6729 19.337 19.6377 19.3228 19.6024 19.3095L19.4499 19.2539C19.4024 19.2372 19.3554 19.221 19.3099 19.202C17.6903 18.517 16.6436 16.9371 16.6436 15.1784C16.6436 15.1098 16.6489 15.0425 16.6537 14.9756Z" fill="#BFC3BA"/>
</svg>
