<svg width="43" height="43" viewBox="0 0 43 43" fill="none" xmlns="http://www.w3.org/2000/svg">
<path d="M42.3123 21.0804C42.3123 32.4395 32.9596 41.6608 21.4062 41.6608C9.85275 41.6608 0.5 32.4395 0.5 21.0804C0.5 9.72137 9.85275 0.5 21.4062 0.5C32.9596 0.5 42.3123 9.72137 42.3123 21.0804Z" stroke="#BFC3BA"/>
<g clip-path="url(#clip0)">
<path d="M30.5577 28.2921L25.3399 22.8131C27.7521 19.0414 26.7956 13.9306 23.2035 11.3977C19.6114 8.86492 14.744 9.86929 12.3317 13.641C9.91953 17.4128 10.876 22.5236 14.4682 25.0564C17.1098 26.919 20.5619 26.919 23.2035 25.0564L28.4213 30.5354C29.0112 31.1549 29.9678 31.1549 30.5577 30.5354C31.1477 29.916 31.1477 28.9116 30.5577 28.2921ZM18.8427 25.7537C14.8895 25.7491 11.6858 22.3852 11.6814 18.2343C11.6814 14.0814 14.8876 10.7149 18.8427 10.7149C22.7978 10.7149 26.0041 14.0814 26.0041 18.2343C26.0041 22.3872 22.7978 25.7537 18.8427 25.7537ZM30.0871 30.0405C29.9286 30.207 29.7136 30.3005 29.4895 30.3004C29.2654 30.3011 29.0504 30.2077 28.8923 30.0409L23.8104 24.7045L25.0048 23.4503L30.0867 28.7867C30.4166 29.1328 30.4167 29.6942 30.0871 30.0405Z" fill="#BFC3BA"/>
<path d="M19.0179 11.4168L19.0002 12.1163C20.724 12.1632 22.3391 13.0109 23.4093 14.4305L23.9309 13.9954C22.7382 12.4138 20.9386 11.4693 19.0179 11.4168Z" fill="#BFC3BA"/>
<path d="M24.4169 14.7317L23.8457 15.0916C23.9698 15.3081 24.0811 15.5325 24.1788 15.7634L24.7863 15.4808C24.6779 15.2234 24.5546 14.9732 24.4169 14.7317Z" fill="#BFC3BA"/>
</g>
<defs>
<clipPath id="clip0">
<rect width="20" height="21" fill="white" transform="translate(11 10)"/>
</clipPath>
</defs>
</svg>
