<svg width="84" height="83" viewBox="0 0 84 83" fill="none" xmlns="http://www.w3.org/2000/svg">
<g filter="url(#filter0_d)">
<ellipse cx="41.7412" cy="40.5" rx="39.5804" ry="39.5" fill="#0FA3B1"/>
<g clip-path="url(#clip0)">
<path d="M27.4553 34.5761C27.9107 34.8974 29.2834 35.8518 31.5735 37.4388C33.8638 39.0258 35.6182 40.2478 36.837 41.1047C36.9709 41.1987 37.2554 41.4029 37.6906 41.7176C38.1258 42.0325 38.4875 42.287 38.7753 42.4812C39.0633 42.6752 39.4115 42.8929 39.8201 43.1339C40.2287 43.3747 40.6138 43.5558 40.9754 43.6757C41.337 43.7966 41.6718 43.8565 41.9798 43.8565H42H42.0203C42.3282 43.8565 42.6632 43.7966 43.0248 43.6757C43.3863 43.5558 43.7718 43.3745 44.1799 43.1339C44.5883 42.8927 44.9365 42.6752 45.2245 42.4812C45.5125 42.287 45.8739 42.0325 46.3093 41.7176C46.7444 41.4026 47.0293 41.1987 47.1632 41.1047C48.3951 40.2478 51.5293 38.0713 56.5648 34.5757C57.5425 33.8929 58.3593 33.0691 59.0154 32.1048C59.672 31.1408 60 30.1296 60 29.0717C60 28.1877 59.6817 27.4309 59.0455 26.8015C58.4094 26.172 57.6559 25.8574 56.7856 25.8574H27.2142C26.183 25.8574 25.3894 26.2055 24.8336 26.9018C24.2779 27.5983 24 28.4688 24 29.5134C24 30.3571 24.3684 31.2714 25.1049 32.2558C25.8414 33.2402 26.6251 34.0137 27.4553 34.5761Z" fill="white"/>
<path d="M57.9908 36.7254C53.5984 39.6984 50.2632 42.0088 47.9867 43.6563C47.2233 44.2186 46.604 44.6575 46.1285 44.9721C45.6529 45.2868 45.0204 45.6082 44.23 45.9362C43.44 46.2646 42.7037 46.4284 42.0205 46.4284H42.0001H41.9799C41.2968 46.4284 40.5601 46.2646 39.7701 45.9362C38.98 45.6082 38.3471 45.2868 37.8717 44.9721C37.3964 44.6575 36.7769 44.2186 36.0136 43.6563C34.2054 42.3305 30.8774 40.0199 26.0292 36.7254C25.2656 36.2168 24.5893 35.6339 24 34.9777V50.9282C24 51.8126 24.3146 52.569 24.9441 53.1984C25.5735 53.8281 26.3304 54.1429 27.2144 54.1429H56.7859C57.6697 54.1429 58.4264 53.8281 59.0559 53.1984C59.6856 52.5688 60.0001 51.8127 60.0001 50.9282V34.9777C59.4241 35.6203 58.7546 36.2032 57.9908 36.7254Z" fill="white"/>
</g>
</g>
<defs>
<filter id="filter0_d" x="0.160767" y="0" width="83.1608" height="83" filterUnits="userSpaceOnUse" color-interpolation-filters="sRGB">
<feFlood flood-opacity="0" result="BackgroundImageFix"/>
<feColorMatrix in="SourceAlpha" type="matrix" values="0 0 0 0 0 0 0 0 0 0 0 0 0 0 0 0 0 0 127 0"/>
<feOffset dy="1"/>
<feGaussianBlur stdDeviation="1"/>
<feColorMatrix type="matrix" values="0 0 0 0 0 0 0 0 0 0 0 0 0 0 0 0 0 0 0.25 0"/>
<feBlend mode="normal" in2="BackgroundImageFix" result="effect1_dropShadow"/>
<feBlend mode="normal" in="SourceGraphic" in2="effect1_dropShadow" result="shape"/>
</filter>
<clipPath id="clip0">
<rect width="36" height="36" fill="white" transform="translate(24 22)"/>
</clipPath>
</defs>
</svg>
