<svg width="42" height="42" viewBox="0 0 42 42" fill="none" xmlns="http://www.w3.org/2000/svg">
<g filter="url(#filter0_d)">
<circle cx="21" cy="20" r="19" fill="#DB2763"/>
<path fill-rule="evenodd" clip-rule="evenodd" d="M25.0005 9C25.0005 7.8955 24.105 7 23.0005 7H18.0005C16.896 7 16.0005 7.8955 16.0005 9V10H11V11H12.125L12.9995 30.5C12.9995 30.5 13.314 32 14.4995 32C15.323 32 18.651 32 19.9995 32C19.9995 32 20.4055 32 20.9995 32C22.1453 32 26.1453 32 26.4995 32C27.6855 32 28 30.5 28 30.5L28.8335 11H30V10H25.0005V9ZM17.0005 9C17.0005 8.4475 17.5232 8 18.1672 8H22.8338C23.4778 8 24.0005 8.448 24.0005 9V10H17.0005V9V9ZM26.5 30.9995H21H20H14.5C14.5 30.9995 14.084 30.7725 14 29.9995C13.9165 29.2265 13.125 10.9995 13.125 10.9995H27.7915C27.792 10.9995 27.084 29.2265 27.0005 29.9995C26.9165 30.7725 26.5 30.9995 26.5 30.9995ZM24.5005 13H23.5005L23.0005 29H24.0005L24.5005 13ZM18.0005 29L17.5005 13H16.5L17 29H18.0005ZM20 13H21V29H20V13Z" fill="white"/>
</g>
<defs>
<filter id="filter0_d" x="0" y="0" width="42" height="42" filterUnits="userSpaceOnUse" color-interpolation-filters="sRGB">
<feFlood flood-opacity="0" result="BackgroundImageFix"/>
<feColorMatrix in="SourceAlpha" type="matrix" values="0 0 0 0 0 0 0 0 0 0 0 0 0 0 0 0 0 0 127 0"/>
<feOffset dy="1"/>
<feGaussianBlur stdDeviation="1"/>
<feColorMatrix type="matrix" values="0 0 0 0 0 0 0 0 0 0 0 0 0 0 0 0 0 0 0.25 0"/>
<feBlend mode="normal" in2="BackgroundImageFix" result="effect1_dropShadow"/>
<feBlend mode="normal" in="SourceGraphic" in2="effect1_dropShadow" result="shape"/>
</filter>
</defs>
</svg>
