<svg width="375" height="44" viewBox="0 0 375 44" fill="none" xmlns="http://www.w3.org/2000/svg">
<path opacity="0.35" d="M336.5 20C336.5 18.8034 337.47 17.8333 338.667 17.8333H355.333C356.53 17.8333 357.5 18.8034 357.5 20V26C357.5 27.1966 356.53 28.1666 355.333 28.1666H338.667C337.47 28.1666 336.5 27.1966 336.5 26V20Z" stroke="white"/>
<path opacity="0.4" d="M359 21V25C359.805 24.6612 360.328 23.8731 360.328 23C360.328 22.1269 359.805 21.3388 359 21Z" fill="white"/>
<path d="M338 20.6666C338 19.9303 338.597 19.3333 339.333 19.3333H354.667C355.403 19.3333 356 19.9303 356 20.6666V25.3333C356 26.0697 355.403 26.6666 354.667 26.6666H339.333C338.597 26.6666 338 26.0697 338 25.3333V20.6666Z" fill="white"/>
<path fill-rule="evenodd" clip-rule="evenodd" d="M323.33 19.608C325.546 19.6081 327.677 20.4596 329.283 21.9863C329.404 22.1042 329.598 22.1027 329.717 21.983L330.873 20.8163C330.933 20.7556 330.967 20.6734 330.966 20.5878C330.966 20.5022 330.931 20.4204 330.87 20.3603C326.655 16.3208 320.005 16.3208 315.79 20.3603C315.729 20.4203 315.694 20.5021 315.694 20.5877C315.693 20.6733 315.727 20.7556 315.787 20.8163L316.943 21.983C317.062 22.1029 317.256 22.1044 317.377 21.9863C318.983 20.4595 321.114 19.608 323.33 19.608ZM323.33 23.4037C324.548 23.4036 325.722 23.8561 326.624 24.6733C326.746 24.7893 326.939 24.7868 327.058 24.6677L328.212 23.501C328.273 23.4398 328.307 23.3568 328.306 23.2705C328.305 23.1843 328.27 23.102 328.208 23.042C325.459 20.4856 321.204 20.4856 318.455 23.042C318.393 23.102 318.358 23.1843 318.357 23.2706C318.356 23.3569 318.39 23.4399 318.451 23.501L319.605 24.6677C319.724 24.7868 319.917 24.7893 320.039 24.6733C320.941 23.8567 322.114 23.4042 323.33 23.4037ZM325.643 25.9575C325.645 26.044 325.611 26.1274 325.549 26.188L323.552 28.2037C323.493 28.2629 323.414 28.2963 323.33 28.2963C323.247 28.2963 323.167 28.2629 323.109 28.2037L321.111 26.188C321.049 26.1274 321.015 26.0439 321.017 25.9574C321.019 25.8709 321.056 25.789 321.121 25.731C322.396 24.6521 324.264 24.6521 325.54 25.731C325.604 25.7891 325.642 25.871 325.643 25.9575Z" fill="white"/>
<path fill-rule="evenodd" clip-rule="evenodd" d="M309.667 17.6667H308.667C308.114 17.6667 307.667 18.1144 307.667 18.6667V27.3334C307.667 27.8856 308.114 28.3334 308.667 28.3334H309.667C310.219 28.3334 310.667 27.8856 310.667 27.3334V18.6667C310.667 18.1144 310.219 17.6667 309.667 17.6667ZM304 20H305C305.552 20 306 20.4477 306 21V27.3334C306 27.8856 305.552 28.3334 305 28.3334H304C303.448 28.3334 303 27.8856 303 27.3334V21C303 20.4477 303.448 20 304 20ZM300.333 22.3334H299.333C298.781 22.3334 298.333 22.7811 298.333 23.3334V27.3334C298.333 27.8856 298.781 28.3334 299.333 28.3334H300.333C300.886 28.3334 301.333 27.8856 301.333 27.3334V23.3334C301.333 22.7811 300.886 22.3334 300.333 22.3334ZM295.667 24.3334H294.667C294.114 24.3334 293.667 24.7811 293.667 25.3334V27.3334C293.667 27.8856 294.114 28.3334 294.667 28.3334H295.667C296.219 28.3334 296.667 27.8856 296.667 27.3334V25.3334C296.667 24.7811 296.219 24.3334 295.667 24.3334Z" fill="white"/>
<path d="M37.2841 28.2563C39.9721 28.2563 41.5688 26.1543 41.5688 22.5947C41.5688 19.1011 39.8695 17.1675 37.3427 17.1675C35.0429 17.1675 33.4169 18.7129 33.4169 20.8809C33.4169 22.9097 34.8817 24.3892 36.8959 24.3892C38.1337 24.3892 39.1371 23.8179 39.6352 22.8145H39.7597C39.7377 25.2607 38.8515 26.6743 37.3061 26.6743C36.3979 26.6743 35.6728 26.1836 35.4457 25.3926H33.5634C33.871 27.1211 35.3505 28.2563 37.2841 28.2563ZM37.35 22.895C36.1195 22.895 35.2699 22.0454 35.2699 20.8223C35.2699 19.6431 36.1635 18.7422 37.3573 18.7422C38.5512 18.7422 39.4447 19.6577 39.4447 20.8589C39.4447 22.0381 38.5731 22.895 37.35 22.895ZM44.5866 26.5425C45.2824 26.5425 45.7585 26.0444 45.7585 25.3853C45.7585 24.7188 45.2824 24.228 44.5866 24.228C43.8981 24.228 43.4147 24.7188 43.4147 25.3853C43.4147 26.0444 43.8981 26.5425 44.5866 26.5425ZM44.5866 21.1958C45.2824 21.1958 45.7585 20.7051 45.7585 20.0459C45.7585 19.3794 45.2824 18.8887 44.5866 18.8887C43.8981 18.8887 43.4147 19.3794 43.4147 20.0459C43.4147 20.7051 43.8981 21.1958 44.5866 21.1958ZM52.7607 28H54.5698V25.9858H55.998V24.3892H54.5698V17.4312H51.9038C50.4683 19.6138 48.9668 22.0234 47.5972 24.4111V25.9858H52.7607V28ZM49.3477 24.3306C50.3804 22.5508 51.6035 20.6099 52.6875 18.9692H52.79V24.4331H49.3477V24.3306ZM60.0267 28H61.9163V17.4312H60.034L57.2728 19.3647V21.1812L59.9021 19.3354H60.0267V28Z" fill="white"/>
</svg>
